name Run_300 02_newCOP3_v24.mot
datacolumns 19
datarows 53
range 4.405 4.457
DataType=double
version=3
OpenSimVersion=4.3-2021-08-27-4bc7ad9
endheader
time	R_ground_force_vx	R_ground_force_vy	R_ground_force_vz	R_ground_force_px	R_ground_force_py	R_ground_force_pz	L_ground_force_vx	L_ground_force_vy	L_ground_force_vz	L_ground_force_px	L_ground_force_py	L_ground_force_pz	R_ground_torque_x	R_ground_torque_y	R_ground_torque_z	L_ground_torque_x	L_ground_torque_y	L_ground_torque_z
4.405	0	0	0	0	0	0	2.829901	484.520447	-11.744559	1.066525	0	-0.335187	0	0	0	0	-2.00176	0
4.406	0	0	0	0	0	0	1.798012	516.009033	-10.792406	1.067272	0	-0.334687	0	0	0	0	-1.961267	0
4.407	0	0	0	0	0	0	0.380461	547.681213	-9.577083	1.067952	0	-0.334224	0	0	0	0	-1.913082	0
4.408	0	0	0	0	0	0	-1.440642	579.329285	-8.099041	1.068572	0	-0.333795	0	0	0	0	-1.859038	0
4.409	0	0	0	0	0	0	-3.677252	610.740234	-6.367322	1.069137	0	-0.333398	0	0	0	0	-1.800971	0
4.41	0	0	0	0	0	0	-6.335095	641.6999510000001	-4.400341	1.069652	0	-0.333031	0	0	0	0	-1.740698	0
4.411	0	0	0	0	0	0	-9.413574000000001	671.997925	-2.226384	1.070122	0	-0.332692	0	0	0	0	-1.679988	0
4.412	0	0	0	0	0	0	-12.905843	701.431458	0.116251	1.070548	0	-0.33238	0	0	0	0	-1.62054	0
4.413	0	0	0	0	0	0	-16.799051	729.809814	2.579524	1.070934	0	-0.332094	0	0	0	0	-1.56396	0
4.414	0	0	0	0	0	0	-21.074745	756.958252	5.10635	1.071282	0	-0.331833	0	0	0	0	-1.511743	0
4.415	0	0	0	0	0	0	-25.709364	782.721497	7.631761	1.071593	0	-0.331595	0	0	0	0	-1.465254	0
4.416	0	0	0	0	0	0	-30.674852	806.96637	10.084501	1.071867	0	-0.331382	0	0	0	0	-1.425714	0
4.417	0	0	0	0	0	0	-35.939312	829.583984	12.389034	1.072106	0	-0.331191	0	0	0	0	-1.394184	0
4.418	0	0	0	0	0	0	-41.467716	850.4911499999999	14.46788	1.072309	0	-0.331022	0	0	0	0	-1.371558	0
4.419	0	0	0	0	0	0	-47.222603	869.631165	16.244221	1.072476	0	-0.330876	0	0	0	0	-1.358555	0
4.42	0	0	0	0	0	0	-53.164814	886.973877	17.644642	1.072606	0	-0.330752	0	0	0	0	-1.355711	0
4.421	0	0	0	0	0	0	-59.254192	902.514954	18.601912	1.072699	0	-0.330649	0	0	0	0	-1.363382	0
4.422	0	0	0	0	0	0	-65.450272	916.275024	19.057671	1.072752	0	-0.330567	0	0	0	0	-1.38174	0
4.423	0	0	0	0	0	0	-71.71296700000001	928.298218	18.964884	1.072765	0	-0.330507	0	0	0	0	-1.410778	0
4.424	0	0	0	0	0	0	-78.003227	938.650208	18.289986	1.072734	0	-0.330467	0	0	0	0	-1.450316	0
4.425	0	0	0	0	0	0	-84.283653	947.416077	17.014576	1.072659	0	-0.330448	0	0	0	0	-1.500009	0
4.426	0	0	0	0	0	0	-90.51908899999999	954.698486	15.136622	1.072535	0	-0.330448	0	0	0	0	-1.559354	0
4.427	0	0	0	0	0	0	-96.67718499999999	960.614563	12.671088	1.072361	0	-0.330469	0	0	0	0	-1.627709	0
4.428	0	0	0	0	0	0	-102.728806	965.294189	9.649998999999999	1.072134	0	-0.330508	0	0	0	0	-1.704298	0
4.429	0	0	0	0	0	0	-108.64843	968.87677	6.121907	1.07185	0	-0.330567	0	0	0	0	-1.788235	0
4.43	0	0	0	0	0	0	-114.414406	971.509216	2.150827	1.071506	0	-0.330643	0	0	0	0	-1.878535	0
4.431	0	0	0	0	0	0	-120.009048	973.343018	-2.185351	1.071098	0	-0.330736	0	0	0	0	-1.974134	0
4.432	0	0	0	0	0	0	-125.41861	974.5318600000001	-6.796873	1.070624	0	-0.330846	0	0	0	0	-2.073907	0
4.433	0	0	0	0	0	0	-130.633072	975.2293089999999	-11.584482	1.07008	0	-0.330971	0	0	0	0	-2.176689	0
4.434	0	0	0	0	0	0	-135.645828	975.586365	-16.442064	1.069461	0	-0.33111	0	0	0	0	-2.281289	0
4.435	0	0	0	0	0	0	-140.453232	975.749207	-21.259449	1.068766	0	-0.331263	0	0	0	0	-2.386516	0
4.436	0	0	0	0	0	0	-145.053925	975.857666	-25.925316	1.067992	0	-0.331427	0	0	0	0	-2.491191	0
4.437	0	0	0	0	0	0	-149.448349	976.04303	-30.33009	1.067134	0	-0.331601	0	0	0	0	-2.594169	0
4.438	0	0	0	0	0	0	-153.637955	976.4269410000001	-34.368767	1.066192	0	-0.331785	0	0	0	0	-2.694353	0
4.439	0	0	0	0	0	0	-157.624603	977.119873	-37.943584	1.065162	0	-0.331976	0	0	0	0	-2.790712	0
4.44	0	0	0	0	0	0	-161.410034	978.22052	-40.966492	1.064043	0	-0.332173	0	0	0	0	-2.882292	0
4.441	0	0	0	0	0	0	-164.995331	979.8148190000001	-43.361324	1.062834	0	-0.332374	0	0	0	0	-2.968233	0
4.442	0	0	0	0	0	0	-168.380646	981.97583	-45.065697	1.061535	0	-0.332578	0	0	0	0	-3.047775	0
4.443	0	0	0	0	0	0	-171.564957	984.762939	-46.032513	1.060144	0	-0.332783	0	0	0	0	-3.120269	0
4.444	0	0	0	0	0	0	-174.546051	988.222534	-46.23111	1.058664	0	-0.332988	0	0	0	0	-3.185184	0
4.445	0	0	0	0	0	0	-177.320618	992.387329	-45.647995	1.057094	0	-0.33319	0	0	0	0	-3.242108	0
4.446	0	0	0	0	0	0	-179.884476	997.277283	-44.287121	1.055438	0	-0.333389	0	0	0	0	-3.290758	0
4.447	0	0	0	0	0	0	-182.232819	1002.899475	-42.1698	1.053697	0	-0.333584	0	0	0	0	-3.330971	0
4.448	0	0	0	0	0	0	-184.360611	1009.248779	-39.334118	1.051874	0	-0.333772	0	0	0	0	-3.36271	0
4.449	0	0	0	0	0	0	-186.262939	1016.308472	-35.834007	1.049974	0	-0.333954	0	0	0	0	-3.386055	0
4.45	0	0	0	0	0	0	-187.935364	1024.050903	-31.737844	1.048001	0	-0.334128	0	0	0	0	-3.401202	0
4.451	0	0	0	0	0	0	-189.374176	1032.438232	-27.12677	1.045959	0	-0.334294	0	0	0	0	-3.408451	0
4.452	0	0	0	0	0	0	-190.576736	1041.423584	-22.092623	1.043854	0	-0.33445	0	0	0	0	-3.408201	0
4.453	0	0	0	0	0	0	-191.541565	1050.952026	-16.735638	1.041691	0	-0.334598	0	0	0	0	-3.400939	0
4.454	0	0	0	0	0	0	-192.268509	1060.96167	-11.161901	1.039476	0	-0.334736	0	0	0	0	-3.387225	0
4.455	0	0	0	0	0	0	-192.758743	1071.38501	-5.480693	1.037215	0	-0.334864	0	0	0	0	-3.367688	0
4.456	0	0	0	0	0	0	-193.014786	1082.150269	0.198288	1.034914	0	-0.334984	0	0	0	0	-3.343004	0
4.457	0	0	0	0	0	0	-193.040405	1093.183105	5.767673	1.032579	0	-0.335094	0	0	0	0	-3.313891	0
